<?xml version="1.0" encoding="UTF-8" standalone="no"?>
<!-- Created with Inkscape (http://www.inkscape.org/) -->

<svg
   xmlns:dc="http://purl.org/dc/elements/1.1/"
   xmlns:cc="http://creativecommons.org/ns#"
   xmlns:rdf="http://www.w3.org/1999/02/22-rdf-syntax-ns#"
   xmlns:svg="http://www.w3.org/2000/svg"
   xmlns="http://www.w3.org/2000/svg"
   xmlns:sodipodi="http://sodipodi.sourceforge.net/DTD/sodipodi-0.dtd"
   xmlns:inkscape="http://www.inkscape.org/namespaces/inkscape"
   width="297mm"
   height="210mm"
   viewBox="0 0 297 210"
   version="1.1"
   id="svg8"
   inkscape:version="0.92.1 r15371"
   sodipodi:docname="drawing.svg">
  <defs
     id="defs2" />
  <sodipodi:namedview
     id="base"
     pagecolor="#ffffff"
     bordercolor="#666666"
     borderopacity="1.0"
     inkscape:pageopacity="0.0"
     inkscape:pageshadow="2"
     inkscape:zoom="1"
     inkscape:cx="359.80879"
     inkscape:cy="560"
     inkscape:document-units="mm"
     inkscape:current-layer="layer1"
     showgrid="false"
     inkscape:window-width="1280"
     inkscape:window-height="977"
     inkscape:window-x="1278"
     inkscape:window-y="-3"
     inkscape:window-maximized="1" />
  <metadata
     id="metadata5">
    <rdf:RDF>
      <cc:Work
         rdf:about="">
        <dc:format>image/svg+xml</dc:format>
        <dc:type
           rdf:resource="http://purl.org/dc/dcmitype/StillImage" />
        <dc:title></dc:title>
      </cc:Work>
    </rdf:RDF>
  </metadata>
  <g
     inkscape:label="Layer 1"
     inkscape:groupmode="layer"
     id="layer1"
     transform="translate(0,-87)">
    <g
       id="layer1-1"
       transform="matrix(0.82629095,0,0,0.81433521,-324.37534,-275.16814)">
      <g
         transform="translate(0.5118018,-0.0474185)"
         id="g4144">
        <rect
           y="469.65552"
           x="413.69681"
           height="136.84193"
           width="144.03497"
           id="rect5784-3"
           style="opacity:1;fill:#396c85;fill-opacity:1;stroke:#314b58;stroke-width:4.48458481;stroke-linecap:round;stroke-linejoin:round;stroke-miterlimit:4;stroke-dasharray:none;stroke-opacity:1" />
        <path
           id="path5466-3-6-7-2-7-67"
           d="m 479.88752,583.90055 3e-5,-12.60789 h -33.82967 l 0.45763,-15.93893 -23.33284,22.37013 22.08534,21.22945 0.43424,-15.05209 34.18624,-9e-5 z"
           style="display:inline;fill:#ffffff;fill-opacity:1;fill-rule:evenodd;stroke:#606f79;stroke-width:1.61080325;stroke-linecap:round;stroke-linejoin:round;stroke-miterlimit:4;stroke-dasharray:none;stroke-opacity:1"
           inkscape:connector-curvature="0" />
        <path
           id="path5466-3-6-7-2-7-0-5"
           d="m 494.75491,530.88618 4e-5,-12.60792 h -33.82968 l 0.45763,-15.93893 -23.33287,22.37012 22.08537,21.22946 0.43424,-15.05209 34.18624,-10e-5 z"
           style="display:inline;fill:#ffffff;fill-opacity:1;fill-rule:evenodd;stroke:#606f79;stroke-width:1.61080325;stroke-linecap:round;stroke-linejoin:round;stroke-miterlimit:4;stroke-dasharray:none;stroke-opacity:1"
           inkscape:connector-curvature="0" />
        <path
           id="path5466-3-6-7-2-7-0-9-35"
           d="m 488.40487,491.6943 -1e-4,12.60788 33.82974,-3e-5 -0.45766,15.93896 23.3329,-22.37013 -22.08534,-21.22945 -0.43427,15.05209 -34.18627,10e-5 z"
           style="display:inline;fill:#ffffff;fill-opacity:1;fill-rule:evenodd;stroke:#606f79;stroke-width:1.61080325;stroke-linecap:round;stroke-linejoin:round;stroke-miterlimit:4;stroke-dasharray:none;stroke-opacity:1"
           inkscape:connector-curvature="0" />
        <path
           id="path5466-3-6-7-2-7-0-9-3-6"
           d="m 476.3934,547.17088 -10e-5,12.60788 33.82974,-3e-5 -0.45766,15.93896 23.3329,-22.37012 -22.08534,-21.22946 -0.43427,15.05212 -34.18627,7e-5 z"
           style="display:inline;fill:#ffffff;fill-opacity:1;fill-rule:evenodd;stroke:#606f79;stroke-width:1.61080325;stroke-linecap:round;stroke-linejoin:round;stroke-miterlimit:4;stroke-dasharray:none;stroke-opacity:1"
           inkscape:connector-curvature="0" />
      </g>
    </g>
    <g
       id="g4513"
       transform="matrix(0.28222223,0,0,0.28222223,62.307898,151.29796)">
      <circle
         style="opacity:1;fill:#a1a2a3;fill-opacity:1;stroke:#4f4f4f;stroke-width:2;stroke-linecap:round;stroke-linejoin:round;stroke-miterlimit:4;stroke-dasharray:none;stroke-opacity:1"
         id="path4136"
         cx="50.564232"
         cy="50.564232"
         r="49.564232" />
      <path
         id="path5466-5"
         d="m 60.88263,18.233046 7.882053,8.330483 -17.66604,18.276821 -18.562884,-17.774279 8.512182,-8.662941 -24.11204,0.848513 0.833061,22.85182 8.038632,-8.179725 19.498364,16.237689 v 0.01737 l -19.162064,17.410925 -8.347879,-8.821447 -0.03087,24.127484 h 22.867287 l -7.882076,-8.330475 17.54235,-19.508035 18.582211,19.479046 -8.80984,8.35755 24.127485,0.0016 -0.02902,-22.867272 -8.320843,7.891732 -19.70903,-17.751086 19.237424,-16.630047 8.347895,8.821423 0.03087,-24.127491 H 60.882579 Z"
         style="fill:#ffffff;fill-opacity:1;fill-rule:evenodd;stroke:#4f4f4f;stroke-width:1.16718745;stroke-linecap:round;stroke-linejoin:round;stroke-miterlimit:4;stroke-dasharray:none;stroke-opacity:1"
         inkscape:connector-curvature="0" />
    </g>
  </g>
</svg>
